HIERARCHY
ROOT Hips
{
	OFFSET 0.000000 88.474243 0.000000
	CHANNELS 6 Xposition Yposition Zposition Zrotation Yrotation Xrotation 
	JOINT Hips_Spine
	{
		OFFSET 0.000000 0.000000 0.000000
		CHANNELS 3 Zrotation Yrotation Xrotation
		JOINT Spine
		{
			OFFSET 0.005100 8.711998 -0.691000
			CHANNELS 3 Zrotation Yrotation Xrotation
			JOINT Spine1
			{
				OFFSET -0.009200 8.660301 -1.275000
				CHANNELS 3 Zrotation Yrotation Xrotation
				JOINT Spine2
				{
					OFFSET 0.006300 9.852501 -1.857000
					CHANNELS 3 Zrotation Yrotation Xrotation
					JOINT Spine2_Neck
					{
						OFFSET 0.000000 0.000000 0.000000
						CHANNELS 3 Zrotation Yrotation Xrotation
						JOINT Neck
						{
							OFFSET 0.016300 11.420799 -0.263300
							CHANNELS 3 Zrotation Yrotation Xrotation
							End Site #name: Head
							{
								OFFSET -0.019200 9.262405 2.362500
							}
						}
					}
					JOINT Spine2_LeftShoulder
					{
						OFFSET 0.000000 0.000000 0.000000
						CHANNELS 3 Zrotation Yrotation Xrotation
						JOINT LeftShoulder
						{
							OFFSET 5.616900 6.732201 -0.345700
							CHANNELS 3 Zrotation Yrotation Xrotation
							JOINT LeftArm
							{
								OFFSET 10.664888 -0.183372 -2.440700
								CHANNELS 3 Zrotation Yrotation Xrotation
								JOINT LeftForeArm
								{
									OFFSET 27.459126 0.000000 0.000000
									CHANNELS 3 Zrotation Yrotation Xrotation
									End Site #name: LeftHand
									{
										OFFSET 21.306858 0.000000 0.000000
									}
								}
							}
						}
					}
					JOINT Spine2_RightShoulder
					{
						OFFSET 0.000000 0.000000 0.000000
						CHANNELS 3 Zrotation Yrotation Xrotation
						JOINT RightShoulder
						{
							OFFSET -5.580300 6.737503 -0.344400
							CHANNELS 3 Zrotation Yrotation Xrotation
							JOINT RightArm
							{
								OFFSET -10.679335 -0.188484 -2.383900
								CHANNELS 3 Zrotation Yrotation Xrotation
								JOINT RightForeArm
								{
									OFFSET -27.503529 0.000000 0.000000
									CHANNELS 3 Zrotation Yrotation Xrotation
									End Site #name: RightHand
									{
										OFFSET -21.306808 0.000000 0.000000
									}
								}
							}
						}
					}
				}
			}
		}
	}
	JOINT Hips_LeftUpLeg
	{
		OFFSET 0.000000 0.000000 0.000000
		CHANNELS 3 Zrotation Yrotation Xrotation
		JOINT LeftUpLeg
		{
			OFFSET 6.857700 -6.739601 0.312100
			CHANNELS 3 Zrotation Yrotation Xrotation
			JOINT LeftLeg
			{
				OFFSET -0.367590 -34.731552 -4.572400
				CHANNELS 3 Zrotation Yrotation Xrotation
				End Site #name: LeftFoot
				{
					OFFSET 0.367590 -34.656704 -6.067400
				}
			}
		}
	}
	JOINT Hips_RightUpLeg
	{
		OFFSET 0.000000 0.000000 0.000000
		CHANNELS 3 Zrotation Yrotation Xrotation
		JOINT RightUpLeg
		{
			OFFSET -6.876100 -6.733299 0.301000
			CHANNELS 3 Zrotation Yrotation Xrotation
			JOINT RightLeg
			{
				OFFSET 0.347353 -34.795158 -4.515900
				CHANNELS 3 Zrotation Yrotation Xrotation
				End Site #name: RightFoot
				{
					OFFSET -0.347353 -34.589367 -6.070300
				}
			}
		}
	}
}
MOTION
Frames: 14
Frame Time: 0.041667
0.058965 0.007429 0.011449 -0.972008 -3.874937 -2.044649 0.000000 0.000000 0.000000 0.844247 1.259738 8.092748 -0.817705 0.871488 0.409481 0.000000 0.000000 0.000000 -0.388358 -0.019673 -1.898975 1.047227 -1.797996 4.645975 -1.616171 -0.228551 0.057622 -4.898943 -6.328771 1.581389 -64.182115 3.547584 43.561515 0.181125 -23.494665 -0.339872 -0.569906 0.592298 0.407767 11.123510 -2.380069 1.895539 60.936755 24.663721 17.919486 178.965004 63.635145 179.805415 0.000000 0.000000 0.000000 -0.122359 8.226828 -16.386405 4.031384 5.879863 19.204830 0.000000 0.000000 0.000000 -1.935903 -10.067465 -11.102752 -1.710267 -3.331525 17.068330 
0.089198 0.053476 -0.045831 -1.084493 -3.595624 -1.827402 0.000000 0.000000 0.000000 -0.375342 0.472354 3.952901 -0.871140 0.522790 1.131507 0.000000 0.000000 0.000000 -0.675974 -0.219565 0.171328 2.804249 -1.436921 5.456955 -0.570271 -0.251148 1.014698 -3.797359 1.769230 0.314005 -61.165701 6.033084 48.614930 0.157236 -19.381503 0.269199 -1.210542 -0.067138 0.933945 9.967216 -1.270852 0.786097 58.311339 32.477301 3.742064 179.267448 50.750820 179.849640 0.000000 0.000000 -0.000000 0.550643 10.031777 -15.610422 3.292317 6.007732 17.686288 0.000000 0.000000 0.000000 -2.052750 -10.252052 -11.498240 -1.877504 -3.477192 16.839720 
0.199625 0.049531 -0.108836 -1.361578 -3.464205 -1.632225 0.000000 0.000000 0.000000 -0.489166 0.324865 3.306246 -0.713363 0.278367 1.724817 0.000000 0.000000 0.000000 -0.834894 -0.267976 0.562773 2.659606 -1.280572 4.812694 -0.835500 0.042546 2.188157 -5.857712 4.088745 -0.078080 -61.912681 2.997613 43.433770 0.067126 -13.689698 0.076325 -1.134645 -0.004584 1.486814 10.282572 -1.795649 0.399337 53.457531 27.718224 0.445303 179.452998 52.588216 -179.916325 0.000000 0.000000 -0.000000 1.015705 11.197041 -15.980925 3.423332 6.176220 17.848655 -0.000000 0.000000 0.000000 -1.895795 -10.041472 -11.674926 -1.546405 -3.442082 16.651371 
0.336311 0.038698 -0.177055 -1.626196 -3.371291 -1.449468 0.000000 0.000000 0.000000 -0.695606 0.548989 3.579662 -0.788899 0.160473 2.409584 0.000000 0.000000 0.000000 -0.920989 -0.248483 1.204635 1.727286 -1.680454 6.058125 -1.011935 -0.067415 2.442647 -5.317086 5.221757 -0.409902 -64.791681 0.111762 40.583585 0.057160 -10.319874 0.122787 -1.130257 -0.027821 1.967312 9.567593 -2.275836 0.364164 50.139806 30.997126 -3.278814 179.375539 48.089440 -179.828676 -0.000000 0.000000 -0.000000 1.241516 11.733223 -16.307260 3.634773 6.261096 18.025048 -0.000000 0.000000 0.000000 -1.748809 -9.952630 -11.818046 -1.164507 -2.959692 16.683816 
0.497721 0.031748 -0.242523 -1.840483 -3.390802 -1.328657 0.000000 0.000000 0.000000 -0.882118 0.783810 3.939447 -1.005526 0.116187 2.555574 0.000000 0.000000 0.000000 -1.171482 -0.266699 1.335460 1.364892 -2.087925 7.222578 -1.171927 -0.252103 2.478937 -4.665616 5.582054 -0.460043 -66.687379 -1.815041 39.284912 0.061582 -8.589825 0.118035 -1.344645 -0.071157 2.223218 9.507934 -3.005492 0.315572 48.689687 34.486382 -5.321894 179.431780 44.410332 -179.742084 -0.000000 0.000000 -0.000000 1.366134 11.995043 -16.570289 3.741097 6.193916 18.335365 -0.000000 0.000000 0.000000 -1.677133 -9.767208 -11.897184 -0.824394 -2.686166 16.687026 
0.665794 0.027310 -0.304362 -1.991153 -3.467697 -1.248735 0.000000 -0.000000 0.000000 -1.014545 0.842833 4.132714 -1.201302 0.122092 2.579339 0.000000 0.000000 0.000000 -1.368644 -0.297675 1.379177 1.545180 -2.393836 8.095581 -1.288650 -0.371854 2.552162 -4.223462 5.423618 -0.418150 -68.038524 -2.868529 38.588446 0.087051 -7.690276 0.101001 -1.537941 -0.116691 2.261607 9.193234 -2.965210 0.345865 48.302643 36.359521 -6.365255 179.407164 42.862497 -179.700562 -0.000000 0.000000 -0.000000 1.441271 12.141006 -16.754728 3.741401 6.023021 18.645980 -0.000000 0.000000 0.000000 -1.621230 -9.604310 -11.894640 -0.589890 -2.478211 16.555497 
0.825840 0.023778 -0.363856 -2.100551 -3.533099 -1.174050 0.000000 -0.000000 0.000000 -1.010253 0.828489 4.292414 -1.301459 0.132490 2.590950 0.000000 0.000000 0.000000 -1.483954 -0.291481 1.381619 1.989830 -2.622317 8.602220 -1.381919 -0.361246 2.567680 -3.847797 5.540644 -0.425791 -68.766176 -3.323539 37.630480 0.103049 -7.731013 0.126441 -1.644776 -0.098254 2.216848 8.771264 -2.779438 0.371685 48.179775 36.854394 -6.434188 179.393124 42.247320 -179.701117 -0.000000 0.000000 -0.000000 1.472727 12.205000 -16.893476 3.710400 5.815951 18.835678 -0.000000 0.000000 0.000000 -1.569751 -9.554511 -11.927291 -0.448828 -2.272673 16.462922 
0.963662 0.019917 -0.419713 -2.198591 -3.557935 -1.091160 0.000000 -0.000000 0.000000 -0.986251 0.857184 4.378667 -1.349824 0.174674 2.574591 0.000000 0.000000 0.000000 -1.557582 -0.246228 1.366840 2.288404 -2.846838 8.927087 -1.437673 -0.288842 2.557070 -3.602363 5.754096 -0.457140 -68.966179 -3.378528 36.884689 0.107817 -8.335251 0.140164 -1.718929 -0.035924 2.164708 8.245495 -2.665509 0.387312 48.118216 36.447433 -6.294447 179.403857 42.559438 -179.699186 -0.000000 0.000000 -0.000000 1.490379 12.234585 -17.016872 3.663000 5.581856 18.907937 -0.000000 0.000000 0.000000 -1.501984 -9.565497 -12.026098 -0.346433 -2.067144 16.482497 
1.065135 0.015136 -0.469753 -2.299673 -3.570559 -1.010448 0.000000 -0.000000 0.000000 -0.977457 0.877448 4.423987 -1.373449 0.214627 2.563392 0.000000 0.000000 0.000000 -1.613959 -0.195344 1.354378 2.535149 -2.981883 9.122904 -1.483161 -0.211821 2.545710 -3.460066 6.033818 -0.499570 -68.915911 -3.085672 36.442694 0.106822 -8.884243 0.143788 -1.773729 0.019039 2.122442 7.691940 -2.620273 0.390307 47.616510 35.841225 -6.449316 179.400415 43.144469 -179.708904 -0.000000 0.000000 -0.000000 1.517491 12.245853 -17.127527 3.621844 5.353454 18.926237 -0.000000 0.000000 0.000000 -1.419371 -9.590572 -12.146897 -0.243173 -1.864573 16.560268 
1.133662 0.009728 -0.513959 -2.388188 -3.582469 -0.945555 0.000000 -0.000000 0.000000 -1.002986 0.900105 4.476206 -1.396066 0.240759 2.547392 0.000000 0.000000 0.000000 -1.662780 -0.160919 1.327133 2.693059 -3.039173 9.205483 -1.522869 -0.160446 2.516692 -3.377473 6.281740 -0.544366 -68.753524 -2.689318 36.317851 0.103763 -9.306973 0.149842 -1.825234 0.061397 2.086629 7.188180 -2.638609 0.386086 46.763362 35.402867 -6.922263 179.392359 43.442189 -179.719401 -0.000000 0.000000 -0.000000 1.553018 12.246678 -17.207214 3.587562 5.151290 18.914030 -0.000000 0.000000 0.000000 -1.334987 -9.600346 -12.257202 -0.148492 -1.698037 16.662062 
1.172502 0.004103 -0.552993 -2.454313 -3.576660 -0.901049 0.000000 -0.000000 0.000000 -1.040887 0.921701 4.556238 -1.423829 0.255679 2.529977 0.000000 0.000000 0.000000 -1.713422 -0.141667 1.299695 2.792135 -3.049500 9.253756 -1.563481 -0.133151 2.488298 -3.305821 6.485107 -0.582580 -68.596017 -2.320699 36.374048 0.099436 -9.531447 0.152179 -1.879958 0.085666 2.061487 6.764536 -2.667928 0.382630 45.763233 35.304092 -7.666777 179.382915 43.533960 -179.722777 0.000000 0.000000 -0.000000 1.590852 12.245612 -17.263895 3.558325 4.974018 18.895493 -0.000000 0.000000 0.000000 -1.258759 -9.596481 -12.345971 -0.092957 -1.599666 16.766010 
1.184975 -0.001393 -0.587861 -2.493154 -3.542481 -0.876433 0.000000 -0.000000 0.000000 -1.075555 0.940389 4.657441 -1.453821 0.262284 2.520367 0.000000 0.000000 0.000000 -1.758792 -0.129896 1.279991 2.861394 -3.041556 9.243384 -1.602176 -0.119988 2.468260 -3.237629 6.646017 -0.611976 -68.478511 -2.046389 36.511273 0.095643 -9.618354 0.159025 -1.928886 0.099436 2.051727 6.428011 -2.719942 0.379126 44.846917 35.641475 -8.525904 179.367563 43.382560 -179.729525 0.000000 0.000000 -0.000000 1.625192 12.244410 -17.302779 3.532055 4.810492 18.889197 0.000000 0.000000 0.000000 -1.201625 -9.581546 -12.401977 -0.054957 -1.550975 16.846204 
1.174281 -0.006602 -0.619467 -2.502191 -3.482070 -0.869212 0.000000 -0.000000 0.000000 -1.100632 0.956251 4.759758 -1.481652 0.267892 2.520458 0.000000 0.000000 0.000000 -1.799193 -0.122648 1.276418 2.900011 -3.042609 9.204068 -1.634661 -0.114322 2.461741 -3.189009 6.752312 -0.632163 -68.421080 -1.847504 36.612605 0.095223 -9.627465 0.165128 -1.968740 0.106835 2.055581 6.183536 -2.774828 0.374099 44.121167 36.190592 -9.366815 179.352294 43.085337 -179.737366 0.000000 0.000000 -0.000000 1.646244 12.243758 -17.319759 3.506244 4.655453 18.868725 0.000000 0.000000 0.000000 -1.162243 -9.573065 -12.436019 -0.026171 -1.525711 16.914669 
1.143880 -0.011748 -0.648662 -2.494988 -3.406630 -0.874109 0.000000 -0.000000 0.000000 -1.120539 0.968670 4.841948 -1.501597 0.271966 2.527469 0.000000 0.000000 0.000000 -1.828604 -0.115002 1.284078 2.961078 -3.048054 9.176019 -1.656896 -0.109694 2.468918 -3.144949 6.827139 -0.644076 -68.440607 -1.744747 36.589228 0.095011 -9.573272 0.170680 -1.997561 0.110458 2.070447 5.998835 -2.818809 0.371426 43.542757 36.660327 -10.171977 179.335844 42.686765 -179.749622 0.000000 0.000000 -0.000000 1.659115 12.241096 -17.324266 3.477028 4.501240 18.847121 0.000000 0.000000 0.000000 -1.133134 -9.569275 -12.449596 -0.004774 -1.513370 16.966282 
